<?xml version="1.0" encoding="utf-8"?>
<!-- Generator: Adobe Illustrator 17.0.0, SVG Export Plug-In . SVG Version: 6.00 Build 0)  -->
<!DOCTYPE svg PUBLIC "-//W3C//DTD SVG 1.1//EN" "http://www.w3.org/Graphics/SVG/1.1/DTD/svg11.dtd">
<svg version="1.1" id="Capa_1" xmlns="http://www.w3.org/2000/svg" xmlns:xlink="http://www.w3.org/1999/xlink" x="0px" y="0px"
	 width="595.302px" height="248.645px" viewBox="0 296.625 595.302 248.645" enable-background="new 0 296.625 595.302 248.645"
	 xml:space="preserve">
<path fill="#413000" d="M356.762,381.256c-13.052,0-22.772,6.409-22.772,21.835c0,11.622,6.406,19.689,22.07,19.689
	c13.276,0,22.292-7.822,22.292-20.169C378.353,388.618,370.284,381.257,356.762,381.256L356.762,381.256z M330.658,490.167
	c-3.089,3.791-6.166,7.818-6.166,12.572c0,9.483,12.093,12.337,28.704,12.337c13.761,0,32.505-0.964,32.505-13.758
	c0-7.604-9.018-8.075-20.413-8.79l-34.632-2.361H330.658z M400.883,381.974c4.264,5.458,8.778,13.052,8.778,23.965
	c0,26.334-20.642,41.754-50.528,41.754c-7.6,0-14.481-0.947-18.747-2.131l-7.832,12.572l23.248,1.42
	c41.048,2.615,65.24,3.804,65.24,35.347c0,27.291-23.956,42.703-65.24,42.703c-42.941,0-59.31-10.915-59.31-29.655
	c0-10.681,4.746-16.362,13.05-24.203c-7.832-3.311-10.438-9.238-10.438-15.647c0-5.223,2.606-9.967,6.883-14.478
	c4.269-4.503,9.012-9.017,14.707-14.235c-11.624-5.693-20.404-18.03-20.404-35.589c0-27.28,18.033-46.016,54.325-46.016
	c10.204,0,16.375,0.939,21.832,2.371h46.266v20.161l-21.83,1.661"/>
<path fill="#413000" d="M464.474,338.861c-13.527,0-21.353-7.836-21.353-21.364c0-13.511,7.827-20.871,21.353-20.871
	c13.761,0,21.59,7.36,21.59,20.871C486.064,331.024,478.235,338.861,464.474,338.861z M433.864,481.435v-18.733l12.104-1.656
	c3.323-0.481,3.795-1.187,3.795-4.755v-69.75c0-2.604-0.709-4.272-3.088-4.978l-12.81-4.512l2.609-19.21h49.115v98.452
	c0,3.803,0.229,4.273,3.797,4.755l12.101,1.656v18.733h-67.623"/>
<path fill="#413000" d="M595.302,472.24c-10.206,4.976-25.149,9.485-38.679,9.485c-28.231,0-38.904-11.377-38.904-38.197v-62.154
	c0-1.421,0-2.374-1.905-2.374h-16.604v-21.114c20.884-2.379,29.182-12.82,31.792-38.679h22.541v33.7c0,1.655,0,2.371,1.9,2.371
	h33.45V379h-35.349v56.699c0,14,3.326,19.452,16.13,19.452c6.652,0,13.524-1.656,19.219-3.793l6.412,20.884"/>
<path fill="#F05133" d="M243.773,409.98L135.288,301.508c-6.242-6.248-16.374-6.248-22.624,0l-22.526,22.528l28.573,28.573
	c6.643-2.243,14.256-0.739,19.549,4.554c5.32,5.326,6.813,13.005,4.514,19.67l27.54,27.54c6.663-2.296,14.35-0.813,19.67,4.517
	c7.438,7.436,7.438,19.485,0,26.922c-7.439,7.44-19.488,7.44-26.931,0c-5.593-5.597-6.976-13.814-4.143-20.705l-25.684-25.684
	l-0.002,67.586c1.813,0.898,3.525,2.096,5.036,3.6c7.436,7.435,7.436,19.482,0,26.929c-7.438,7.435-19.492,7.435-26.922,0
	c-7.437-7.447-7.437-19.493,0-26.929c1.838-1.835,3.965-3.223,6.234-4.154v-68.214c-2.27-0.927-4.394-2.305-6.235-4.154
	c-5.633-5.629-6.99-13.896-4.101-20.814l-28.168-28.172L4.687,409.479c-6.25,6.252-6.25,16.385,0,22.633l108.479,108.472
	c6.245,6.248,16.374,6.248,22.628,0l107.977-107.96c6.248-6.251,6.248-16.386,0-22.635"/>
</svg>
