<?xml version="1.0" encoding="utf-8"?>
<!-- Generator: Adobe Illustrator 17.0.0, SVG Export Plug-In . SVG Version: 6.00 Build 0)  -->
<!DOCTYPE svg PUBLIC "-//W3C//DTD SVG 1.1//EN" "http://www.w3.org/Graphics/SVG/1.1/DTD/svg11.dtd">
<svg version="1.1" id="Capa_1" xmlns="http://www.w3.org/2000/svg" xmlns:xlink="http://www.w3.org/1999/xlink" x="0px" y="0px"
	 width="421.812px" height="595.28px" viewBox="86.734 123.305 421.812 595.28"
	 enable-background="new 86.734 123.305 421.812 595.28" xml:space="preserve">
<title>HTML5 Logo</title>
<path d="M126.032,123.305h26.741v26.509h24.648v-26.509h26.741v80.223h-26.741v-26.741h-24.416v26.741h-26.974 M239.507,150.046
	h-23.602v-26.741h74.061v26.741h-23.718v53.482h-26.741 M301.709,123.305h28.02l17.207,28.253l17.207-28.253h28.02v80.223h-26.741
	v-39.763l-18.719,28.834l-18.719-28.834v39.763h-26.276 M405.418,123.305h26.741v53.715h37.903v26.509h-64.644"/>
<path fill="#E44D26" d="M125.102,670.916L86.734,240.268h421.812l-38.368,430.415l-172.887,47.901"/>
<path fill="#F16529" d="M297.64,681.961V275.613h172.422l-32.903,367.399"/>
<path fill="#EBEBEB" d="M165.097,328.281H297.64v52.785h-74.643l4.883,54.064h69.759v52.668H179.514 M181.839,514.306h53.017
	l3.72,42.204l59.063,15.812v55.11l-108.36-30.229"/>
<path fill="#FFFFFF" d="M429.718,328.281h-132.31v52.785h127.427 M420.068,435.129h-122.66v52.785h65.109l-6.162,68.597
	l-58.947,15.812V627.2l108.127-29.997"/>
</svg>
