<?xml version="1.0" encoding="utf-8"?>
<!-- Generator: Adobe Illustrator 17.0.0, SVG Export Plug-In . SVG Version: 6.00 Build 0)  -->
<!DOCTYPE svg PUBLIC "-//W3C//DTD SVG 1.1//EN" "http://www.w3.org/Graphics/SVG/1.1/DTD/svg11.dtd">
<svg version="1.1" id="Capa_1" xmlns="http://www.w3.org/2000/svg" xmlns:xlink="http://www.w3.org/1999/xlink" x="0px" y="0px"
	 width="595.28px" height="595.28px" viewBox="0 123.305 595.28 595.28" enable-background="new 0 123.305 595.28 595.28"
	 xml:space="preserve">
<rect x="0" y="123.305" fill="#F7DF1E" width="595.28" height="595.28"/>
<path d="M399.877,588.37c11.991,19.578,27.591,33.969,55.182,33.969c23.178,0,37.984-11.584,37.984-27.591
	c0-19.181-15.213-25.975-40.725-37.134l-13.984-6c-40.366-17.197-67.182-38.74-67.182-84.284c0-41.953,31.966-73.89,81.922-73.89
	c35.566,0,61.134,12.378,79.56,44.788l-43.559,27.969c-9.591-17.197-19.937-23.972-36-23.972c-16.384,0-26.769,10.394-26.769,23.972
	c0,16.781,10.394,23.575,34.394,33.969l13.984,5.991c47.528,20.381,74.363,41.159,74.363,87.875
	c0,50.363-39.563,77.953-92.694,77.953c-51.95,0-85.512-24.756-101.935-57.204L399.877,588.37z M202.272,593.217
	c8.787,15.591,16.781,28.772,36,28.772c18.378,0,29.972-7.191,29.972-35.15V396.633h55.937v190.962
	c0,57.922-33.959,84.284-83.528,84.284c-44.788,0-70.725-23.178-83.916-51.095L202.272,593.217z"/>
</svg>
