<?xml version="1.0" encoding="utf-8"?>
<!-- Generator: Adobe Illustrator 17.0.0, SVG Export Plug-In . SVG Version: 6.00 Build 0)  -->
<!DOCTYPE svg PUBLIC "-//W3C//DTD SVG 1.1//EN" "http://www.w3.org/Graphics/SVG/1.1/DTD/svg11.dtd">
<svg version="1.1" id="Capa_1" xmlns="http://www.w3.org/2000/svg" xmlns:xlink="http://www.w3.org/1999/xlink" x="0px" y="0px"
	 width="423px" height="200.04px" viewBox="0 110.98 423 200.04" enable-background="new 0 110.98 423 200.04" xml:space="preserve"
	>
<g id="_x23_563e7dff">
	<path fill="#1E416F" d="M28.57,119.6c8.97-7.46,21.27-8.38,32.45-8.58c10.68-0.04,21.36-0.03,32.04,0c0,41.67,0,83.35,0,125.02
		c0.07,4.58,0.25,9.76,3.56,13.31c3.33,3.55,8.47,4.03,12.98,4.87c-1.19,6.89-2.33,13.79-3.53,20.67
		c-10.25-0.37-21.52-1.38-29.6-8.41c-6.9-6.04-8.3-15.8-8.46-24.47c-0.02-36.94,0-73.88-0.01-110.82
		c-5.86,0.38-11.93-0.42-17.62,1.32c-5.27,1.69-7.99,7.24-8.32,12.45c-0.87,14.66,0.59,29.41-0.87,44.03
		c-0.77,8.92-5.55,17.35-13.27,22.03c3.3,2.31,6.47,4.94,8.64,8.39c4.11,6.36,5,14.15,5.21,21.55c0.13,11.01-0.03,22.03,0.07,33.04
		c0.09,4.98,1.08,10.69,5.38,13.83c4.66,3.28,10.66,3.05,16.09,3.36c0,6.61,0.01,13.22,0,19.83c-11.91-0.21-25.12-0.72-34.76-8.63
		c-7.62-6.3-9.55-16.66-10.02-26.01c-0.37-12.14-0.01-24.29-0.19-36.42c-0.1-5.77-2.3-11.73-6.77-15.52
		c-3.22-2.71-7.53-3.28-11.57-3.59v-19.48c3.87-0.3,7.96-0.79,11.14-3.24c4.86-3.79,7.12-10.14,7.21-16.15
		c0.15-11.85-0.16-23.7,0.15-35.55C18.99,136.83,20.82,126.15,28.57,119.6z"/>
	<path fill="#1E416F" d="M359.69,110.98c11.68,0.14,24.52,0.64,34.14,8.12c7.99,6.28,10.1,16.96,10.63,26.56
		c0.39,12.09,0.02,24.19,0.19,36.29c0.08,6.04,2.35,12.43,7.26,16.21c3.17,2.43,7.24,2.9,11.09,3.22v19.49
		c-4.06,0.27-8.37,0.87-11.59,3.59c-4.47,3.8-6.67,9.78-6.75,15.55c-0.18,12.12,0.18,24.24-0.19,36.36
		c-0.47,9.38-2.41,19.76-10.06,26.06c-9.65,7.87-22.83,8.38-34.72,8.59c-0.01-6.61,0-13.22,0-19.82c5.46-0.28,11.35-0.35,16.1-3.43
		c3.77-2.57,4.9-7.41,5.25-11.69c0.6-13.97-0.51-28.01,0.65-41.96c0.67-9.25,5.31-18.24,13.39-23.1c-3.11-2.2-6.15-4.63-8.29-7.82
		c-4.28-6.14-5.26-13.85-5.53-21.14c-0.2-11.35,0.03-22.7-0.11-34.05c-0.13-4.98-1.11-10.68-5.4-13.83
		c-4.65-3.26-10.64-3.04-16.06-3.33C359.68,124.23,359.68,117.6,359.69,110.98z"/>
	<path fill="#1E416F" d="M127.44,173.45c11.39-9.83,27.37-13.23,42.02-10.58c12.2,1.84,23.57,9.22,29.55,20.11
		c7.28,13.2,8.08,28.86,7,43.58c-23.79,0.01-47.57-0.01-71.35,0.01c0.64,8.04,3.91,16.31,10.62,21.17
		c7.85,5.73,18.07,6.37,27.45,5.85c7.98-0.44,15.88-2.18,23.36-4.99c1.11,6.84,2.21,13.68,3.32,20.52
		c-11.47,4.75-24.06,6.3-36.4,6.36c-14.82-0.01-30.42-4.63-40.65-15.83c-11-11.91-14.25-28.92-13.48-44.65
		C109.4,199.5,115.41,183.63,127.44,173.45 M143.23,189.31c-5.1,4.89-7.31,11.93-8.36,18.74c15.5,0.02,31,0.02,46.5,0
		c-0.11-7.63-2.53-15.82-8.72-20.72C164.19,180.66,150.79,181.71,143.23,189.31z"/>
	<path fill="#1E416F" d="M244.08,162.61c13.59-1.63,27.45,0.34,40.41,4.55c-1.51,6.78-3.03,13.55-4.56,20.32
		c-10.08-4.13-21.27-5.96-32.09-4.34c-4.66,0.78-10.16,3.52-10.44,8.88c-0.86,5.35,3.1,9.79,7.68,11.86
		c12.19,6.09,26.48,8.73,36.63,18.4c7.2,6.75,8.71,17.34,7.62,26.71c-0.86,8.36-6.05,15.96-13.4,19.98
		c-11.45,6.4-25.06,6.89-37.86,6.33c-9.6-0.18-18.91-2.76-27.89-5.97c1.44-6.99,2.9-13.97,4.35-20.95
		c13.33,5.3,28.13,8.22,42.35,5.21c3.72-0.79,7.26-3.59,7.57-7.61c0.81-4.42-1.7-8.8-5.44-11.04c-11.01-6.98-24.52-8.96-35.06-16.82
		c-5.65-4.05-9.8-10.28-10.9-17.18c-1.41-8.5-0.39-17.91,5-24.91C224.18,167.92,234.23,163.82,244.08,162.61z"/>
	<path fill="#1E416F" d="M324.47,162.66c13.73-1.72,27.75,0.25,40.85,4.5c-1.51,6.78-3.05,13.55-4.56,20.32
		c-9.35-3.87-19.61-5.58-29.71-4.7c-3.67,0.42-7.52,1.4-10.33,3.93c-4.17,4.06-3.08,11.79,1.7,14.95
		c7.71,5.44,17.21,7.27,25.6,11.41c8.94,3.89,18.2,9.95,21,19.87c2.56,9.79,2.2,21.4-4.49,29.54c-6,7.26-15.39,10.53-24.41,11.99
		c-16.46,2.3-33.56,0.96-49.11-5.13c1.41-7,2.9-13.98,4.35-20.96c13.46,5.34,28.47,8.33,42.81,5.08c4.73-0.92,8.01-5.64,7.15-10.4
		c-0.37-4.25-3.78-7.35-7.31-9.24c-10.65-6.06-23.2-8.27-33.15-15.64c-5.67-4.04-9.87-10.26-10.97-17.18
		c-1.46-8.53-0.4-18,5.02-25.03C304.96,168.02,314.79,163.93,324.47,162.66z"/>
</g>
</svg>
