<?xml version="1.0" encoding="utf-8"?>
<!-- Generator: Adobe Illustrator 17.0.0, SVG Export Plug-In . SVG Version: 6.00 Build 0)  -->
<!DOCTYPE svg PUBLIC "-//W3C//DTD SVG 1.1//EN" "http://www.w3.org/Graphics/SVG/1.1/DTD/svg11.dtd">
<svg version="1.1" id="Layer_1" xmlns="http://www.w3.org/2000/svg" xmlns:xlink="http://www.w3.org/1999/xlink" x="0px" y="0px"
	 width="562.29px" height="155.485px" viewBox="3.382 343.2 562.29 155.485" enable-background="new 3.382 343.2 562.29 155.485"
	 xml:space="preserve">
<title>MongoDB_Logo_FullColorBlack_RGB</title>
<path fill="#10AA50" d="M71.929,405.076C63.738,368.94,46.665,359.32,42.31,352.52c-1.796-2.996-3.387-6.11-4.762-9.32
	c-0.23,3.21-0.653,5.233-3.381,7.667c-5.479,4.885-28.747,23.846-30.705,64.905c-1.824,38.281,28.143,61.887,32.102,64.327
	c3.044,1.498,6.752,0.032,8.56-1.343c14.446-9.914,34.183-36.345,27.822-73.679"/>
<path fill="#B8C4C2" d="M38.79,459.713c-0.754,9.475-1.295,14.981-3.21,20.395c0,0,1.257,9.021,2.14,18.576h3.125
	c0.745-6.729,1.883-13.409,3.408-20.005C40.207,476.69,38.945,468.028,38.79,459.713z"/>
<path fill="#12924F" d="M44.247,478.685L44.247,478.685c-4.088-1.889-5.27-10.733-5.452-18.972
	c1.011-13.592,1.306-27.227,0.883-40.85c-0.214-7.148,0.102-66.205-1.76-74.851c1.274,2.928,2.741,5.768,4.393,8.502
	c4.355,6.806,21.433,16.425,29.619,52.561C78.307,442.346,58.677,468.707,44.247,478.685z"/>
<path fill="#21313C" d="M450.918,457.53c2.402,1.921,7.202,2.713,11.434,2.713c5.484,0,10.861-1.017,16.115-5.762
	c5.35-4.863,9.031-12.306,9.031-24.189c0-11.418-4.344-20.684-13.258-26.109c-5.029-3.162-11.546-4.409-18.978-4.409
	c-2.14,0-4.344,0.112-5.596,0.68c-0.513,0.405-0.877,0.97-1.033,1.605c-0.225,2.033-0.225,17.517-0.225,26.671
	c0,9.384,0,22.471,0.225,24.076c0.118,1.359,0.803,3.745,2.285,4.746 M428.104,394.691c1.942,0,9.326,0.337,12.76,0.337
	c6.42,0,10.856-0.337,22.857-0.337c10.059,0,18.523,2.713,24.574,7.908c7.319,6.335,11.236,15.147,11.236,25.885
	c0,15.259-6.955,24.076-13.948,29.047c-6.955,5.201-16.003,8.138-28.892,8.138c-6.859,0-18.635-0.225-28.464-0.337h-0.203
	c-0.46-0.904,0.84-4.43,1.643-4.521c2.675-0.3,3.381-0.407,4.612-0.915c2.076-0.851,2.563-1.91,2.793-5.639
	c0.342-7.009,0.23-15.371,0.23-24.868c0-6.779,0.112-20.005-0.112-24.189c-0.348-3.499-1.824-4.403-4.815-5.083
	c-2.121-0.451-4.264-0.79-6.42-1.017c-0.225-0.679,1.53-3.745,2.103-4.409"/>
<path fill="#21313C" d="M527.861,400.427c-0.455,0.112-1.027,1.247-1.027,1.808c-0.118,4.072-0.23,14.692-0.23,22.038
	c0.059,0.287,0.285,0.511,0.572,0.567c1.482,0.112,5.142,0.23,8.229,0.23c4.344,0,6.859-0.567,8.229-1.247
	c3.66-1.808,5.35-5.768,5.35-10.059c0-9.834-6.859-13.563-17.03-13.563c-1.375-0.017-2.75,0.058-4.114,0.225 M553.788,445.637
	c0-9.946-7.319-15.596-20.695-15.596c-0.567,0-4.815-0.112-5.826,0.112c-0.342,0.112-0.685,0.337-0.685,0.567
	c0,7.121-0.118,18.533,0.23,23.054c0.23,1.921,1.605,4.633,3.312,5.425c1.83,1.017,5.944,1.241,8.801,1.241
	C546.812,460.441,553.788,456.038,553.788,445.637 M507.209,394.889c1.033,0,4.072,0.337,11.846,0.337
	c7.314,0,13.258-0.225,20.331-0.225c8.801,0,20.914,3.167,20.914,16.276c0,6.42-4.569,11.642-10.513,14.13
	c-0.342,0.112-0.342,0.337,0,0.449c8.459,2.14,15.885,7.346,15.885,17.292c0,9.721-6.057,15.826-14.858,19.668
	c-5.35,2.376-12.001,3.162-18.726,3.162c-5.142,0-18.924-0.535-26.586-0.449c-0.803-0.337,0.733-3.959,1.418-4.521
	c1.755-0.054,3.497-0.327,5.184-0.813c2.739-0.674,3.066-1.557,3.408-5.629c0.23-3.504,0.23-16.051,0.23-24.981
	c0-12.209,0.118-20.454,0-24.526c-0.112-3.162-1.257-4.184-3.43-4.746c-1.712-0.342-4.569-0.679-6.854-1.017
	c-0.572-0.567,1.188-3.959,1.755-4.409"/>
<path fill="#21313C" d="M97.242,465.62c-0.294-0.723-0.414-1.506-0.348-2.285c-0.026-0.531,0.095-1.058,0.348-1.525
	c1.478-0.213,2.943-0.512,4.387-0.893c2.022-0.503,2.782-1.605,2.9-4.184c0.332-6.094,0.353-17.528,0.235-25.564v-0.235
	c0-0.867,0-2.044-1.07-2.873c-1.881-1.18-3.923-2.081-6.062-2.675c-0.958-0.284-1.487-0.786-1.461-1.375
	c0.027-0.589,0.631-1.284,1.878-1.53c3.312-0.337,11.99-2.408,15.398-3.981c0.351,0.457,0.514,1.032,0.455,1.605
	c0,0.353-0.054,0.728-0.091,1.113c-0.096,1.134-0.203,2.424-0.203,3.708c0.062,0.463,0.488,0.787,0.95,0.725
	c0.183-0.025,0.353-0.108,0.484-0.238c6.49-5.088,12.306-6.902,15.286-6.902c4.906,0,8.726,2.343,11.685,7.169
	c0.138,0.237,0.389,0.385,0.663,0.391c0.249-0.002,0.481-0.126,0.621-0.332c5.966-4.526,11.878-7.228,15.837-7.228
	c9.352,0,14.943,7.004,14.943,18.726c0,3.371-0.032,7.646-0.064,11.632c-0.027,3.499-0.053,6.779-0.053,9.047
	c0,0.535,0.738,2.076,1.846,2.381c1.37,0.669,3.344,1.011,5.843,1.439h0.096c0.187,0.674-0.209,3.29-0.589,3.825
	c-0.621,0-1.477-0.053-2.547-0.107c-1.942-0.096-4.607-0.23-7.704-0.23c-6.217,0-9.465,0.118-12.568,0.321
	c-0.235-0.776-0.316-3.28-0.032-3.804c1.285-0.201,2.557-0.478,3.809-0.829c1.98-0.653,2.552-1.552,2.675-4.179
	c0.048-1.867,0.407-18.319-0.23-22.225c-0.589-4.05-3.638-8.791-10.31-8.791c-2.477,0-6.474,1.033-10.283,3.922
	c-0.236,0.268-0.369,0.611-0.375,0.968v0.08c0.449,2.108,0.449,4.569,0.449,8.288c0,2.14,0,4.371-0.027,6.602
	c-0.027,4.537-0.048,8.817,0.027,12.054c0,2.204,1.332,2.734,2.408,3.157c0.583,0.128,1.043,0.241,1.509,0.348
	c0.894,0.219,1.824,0.444,3.21,0.663c0.205,0.94,0.187,1.915-0.053,2.846c-0.057,0.35-0.194,0.681-0.401,0.968
	c-3.456-0.118-7.004-0.219-12.124-0.219c-1.552,0-4.082,0.064-6.319,0.123c-1.814,0.048-3.526,0.096-4.5,0.102
	c-0.263-0.621-0.38-1.295-0.342-1.969c-0.055-0.635,0.07-1.272,0.358-1.841l1.375-0.251c1.198-0.214,2.236-0.396,3.21-0.642
	c1.691-0.535,2.327-1.455,2.45-3.611c0.332-5.029,0.589-19.523-0.123-23.151c-1.209-5.821-4.521-8.774-9.85-8.774
	c-3.119,0-7.062,1.503-10.283,3.916c-0.626,0.61-0.97,1.453-0.947,2.327c0,1.728,0,3.783,0,5.987c0,7.276-0.048,16.334,0.128,20.251
	c0.107,1.209,0.535,2.643,2.798,3.167c0.498,0.144,1.354,0.284,2.349,0.449c0.572,0.096,1.198,0.198,1.846,0.316
	c0.206,1.281,0.101,2.593-0.305,3.825c-0.995,0-2.22-0.064-3.622-0.123c-2.14-0.096-4.815-0.214-7.838-0.214
	c-3.574,0-6.062,0.118-8.058,0.214c-1.343,0.064-2.504,0.118-3.665,0.123"/>
<path fill="#21313C" d="M211.979,423.347c-1.931-0.04-3.831,0.494-5.457,1.536c-3.97,2.413-5.992,7.234-5.992,14.317
	c0,13.258,6.64,22.519,16.147,22.519c2.549,0.081,5.036-0.8,6.966-2.466c2.921-2.381,4.473-7.25,4.473-14.066
	c0-13.06-6.49-21.84-16.147-21.84 M213.798,466.637c-17.174,0-23.29-12.6-23.29-24.387c0-8.234,3.365-14.671,10.005-19.138
	c4.651-2.879,9.989-4.457,15.457-4.569c13.103,0,22.257,9.422,22.257,22.921c0,9.17-3.654,16.415-10.572,20.941
	C224.333,464.438,218.56,466.637,213.798,466.637"/>
<path fill="#21313C" d="M386.827,423.347c-1.935-0.044-3.839,0.491-5.468,1.536c-3.97,2.413-5.992,7.234-5.992,14.317
	c0,13.258,6.64,22.519,16.147,22.519c2.557,0.086,5.052-0.794,6.987-2.466c2.921-2.381,4.467-7.25,4.467-14.066
	C402.969,432.127,396.484,423.347,386.827,423.347 M388.657,466.637c-17.174,0-23.29-12.6-23.29-24.381
	c0-8.245,3.365-14.676,10.01-19.143c4.648-2.881,9.985-4.459,15.452-4.569c13.103,0,22.257,9.427,22.257,22.915
	c0,9.181-3.654,16.42-10.572,20.941C399.191,464.438,393.418,466.637,388.657,466.637"/>
<path fill="#21313C" d="M329.001,422.898c-5.291,0-8.716,4.179-8.716,10.647s2.948,14.157,11.236,14.157
	c1.423,0,4.002-0.631,5.281-2.038c1.926-1.771,3.21-5.431,3.21-9.293c0-8.437-4.109-13.472-10.984-13.472 M328.343,467.541
	c-1.495-0.016-2.969,0.352-4.28,1.07c-4.189,2.675-6.131,5.35-6.131,8.459c0,2.911,1.129,5.227,3.558,7.282
	c2.943,2.493,6.913,3.708,12.129,3.708c10.267,0,14.868-5.522,14.868-10.99c0-3.809-1.91-6.362-5.843-7.806
	c-3.028-1.108-8.09-1.717-14.285-1.717 M329.044,493.763c-6.164,0-10.604-1.3-14.398-4.221c-3.692-2.846-5.35-7.073-5.35-9.994
	c0.04-1.883,0.758-3.687,2.022-5.083c1.07-1.22,3.558-3.504,9.31-7.458c0.182-0.078,0.3-0.257,0.3-0.455
	c0.004-0.223-0.147-0.418-0.364-0.471c-4.735-1.814-6.164-4.815-6.597-6.42c0-0.059,0-0.15-0.048-0.251
	c-0.134-0.631-0.262-1.231,0.599-1.846c0.663-0.471,1.723-1.102,2.857-1.771c1.601-0.886,3.137-1.886,4.596-2.991
	c0.284-0.305,0.267-0.782-0.038-1.066c-0.047-0.043-0.098-0.081-0.154-0.111c-7.009-2.354-10.54-7.56-10.54-15.516
	c-0.044-5.035,2.373-9.775,6.474-12.696c2.82-2.231,9.898-4.912,14.483-4.912h0.268c4.714,0.112,7.373,1.102,11.054,2.461
	c2.094,0.757,4.313,1.109,6.538,1.038c3.9,0,5.607-1.236,7.073-2.675c0.238,0.648,0.364,1.332,0.375,2.022
	c0.09,1.645-0.357,3.275-1.273,4.644c-0.797,1.108-2.675,1.91-4.393,1.91c-0.177,0-0.348,0-0.535-0.027
	c-0.904-0.064-1.799-0.212-2.675-0.444l-0.439,0.155c-0.139,0.203-0.048,0.428,0.064,0.717c0.027,0.056,0.049,0.116,0.064,0.177
	c0.313,1.428,0.526,2.876,0.637,4.334c0,8.32-3.28,11.942-6.827,14.628c-3.43,2.573-7.503,4.151-11.771,4.558l0,0
	c-0.091,0-0.535,0.037-1.37,0.112c-0.535,0.048-1.231,0.112-1.332,0.112h-0.102c-0.77,0.214-2.782,1.172-2.782,2.953
	c0,1.477,0.91,3.312,5.259,3.644l2.814,0.198c5.736,0.401,12.9,0.899,16.27,2.038c4.586,1.613,7.621,5.985,7.528,10.845
	c0,7.464-5.307,14.483-14.194,18.774c-4.191,2.002-8.78,3.031-13.424,3.012"/>
<path fill="#21313C" d="M302.752,461.639c-2.515-0.337-4.35-0.68-6.517-1.696c-0.425-0.44-0.705-1.001-0.803-1.605
	c-0.23-3.504-0.23-13.675-0.23-20.331c0-5.431-0.91-10.166-3.21-13.563c-2.745-3.847-6.629-6.105-11.658-6.105
	c-4.457,0-10.401,3.05-15.313,7.234c-0.118,0.112-0.872,0.829-0.856-0.284c0.016-1.113,0.187-3.371,0.294-4.815
	c0.096-0.778-0.181-1.556-0.749-2.097c-3.21,1.605-12.215,3.745-15.548,4.072c-2.429,0.471-3.044,2.809-0.449,3.617h0.037
	c2.077,0.573,4.06,1.445,5.885,2.59c1.027,0.792,0.915,1.921,0.915,2.825c0.112,7.571,0.112,19.213-0.23,25.542
	c-0.112,2.488-0.803,3.392-2.632,3.847l0.171-0.059c-1.393,0.349-2.807,0.614-4.232,0.792c-0.572,0.562-0.572,3.842,0,4.521
	c1.145,0,6.955-0.337,11.771-0.337c6.624,0,10.053,0.337,11.771,0.337c0.69-0.792,0.915-3.842,0.46-4.521
	c-1.583-0.072-3.154-0.299-4.692-0.679c-1.824-0.449-2.285-1.359-2.397-3.387c-0.225-5.318-0.225-16.618-0.225-24.306
	c0-2.14,0.567-3.162,1.252-3.745c2.285-2.033,6.062-3.387,9.374-3.387c3.21,0,5.35,1.017,6.955,2.37
	c1.87,1.631,3.042,3.918,3.274,6.388c0.455,4.28,0.337,12.889,0.337,20.331c0,4.072-0.337,5.094-1.824,5.543
	c-0.685,0.337-2.515,0.679-4.687,0.904c-0.685,0.68-0.46,3.842,0,4.521c2.969,0,6.42-0.337,11.428-0.337
	c6.287,0,10.289,0.337,11.888,0.337c0.685-0.792,0.915-3.745,0.46-4.521"/>
</svg>
