<?xml version="1.0" encoding="utf-8"?>
<!-- Generator: Adobe Illustrator 17.0.0, SVG Export Plug-In . SVG Version: 6.00 Build 0)  -->
<!DOCTYPE svg PUBLIC "-//W3C//DTD SVG 1.1//EN" "http://www.w3.org/Graphics/SVG/1.1/DTD/svg11.dtd">
<svg version="1.1" id="Capa_1" xmlns="http://www.w3.org/2000/svg" xmlns:xlink="http://www.w3.org/1999/xlink" x="0px" y="0px"
	 width="596.261px" height="119.552px" viewBox="58.5 120.12 596.261 119.552" enable-background="new 58.5 120.12 596.261 119.552"
	 xml:space="preserve">
<g id="_x23_ffffffff">
</g>
<g id="_x23_007accff">
	<path fill="#007ACC" d="M146.77,120.12c10.07,3.8,19.86,8.31,29.89,12.25c0.04,31.76,0.06,63.53-0.01,95.3
		c-8.12,3.16-16.09,6.69-24.16,9.98c-2.34,0.87-4.74,2.7-7.36,1.76C119.75,230.86,94.4,222.2,69,213.69
		c-3.43-1.27-6.92-2.36-10.5-3.13c1.54-0.06,3.08-0.05,4.63,0.04c27.87,4.03,55.71,8.46,83.61,12.3
		C146.83,188.64,146.77,154.38,146.77,120.12z"/>
	<path fill="#007ACC" d="M574.05,136c3.24-0.01,6.49,0,9.74,0.01c-0.01,27.33-0.01,54.65,0,81.98c-3.25,0.01-6.5,0.01-9.74,0.01
		c-0.01-2.65-0.01-5.3,0.03-7.94c-6.81,11.89-25.44,13.36-34.52,3.4c-6.76-6.94-8.85-17.06-8.57-26.44
		c0.17-8.67,2.68-17.76,9.04-23.96c9.26-9.44,27.32-7.76,34.06,3.88C574.01,156.63,574.07,146.32,574.05,136 M553.36,165.53
		c-7.5,1.94-11.16,9.91-12.02,16.99c-0.84,8.04-0.49,16.96,4.42,23.75c4.92,6.96,16.2,7.7,22.07,1.59c5.07-5.22,6.25-12.9,6.2-19.89
		c-0.08-6.64-1.38-13.87-6.18-18.79C564.17,165.36,558.39,164.18,553.36,165.53z"/>
	<path fill="#007ACC" d="M292.75,145.83c3.97-4.86,10.09-7.46,16.19-8.31c10.05-1.44,20.25,0.47,29.84,3.45
		c0,3.34,0,6.68,0.02,10.02c-10.41-4.17-22.65-7.38-33.42-2.67c-7.79,3.04-9.16,15.95-1.38,19.76c8.83,4.06,19.13,3.49,27.78,8.1
		c5.19,2.56,9.45,7.2,10.87,12.89c1.95,7.99,0.97,17.5-5.2,23.46c-5.59,5.51-13.74,7.05-21.29,7.42c-9.5,0.46-18.94-1.71-27.78-5.03
		c0.05-3.64,0.04-7.27,0.05-10.91c9.34,4.96,20.05,8.19,30.69,6.58c4.71-0.8,9.74-2.95,11.97-7.45c2.68-5.66,1.44-13.65-4.36-16.87
		c-7.54-4.37-16.69-3.85-24.64-7.12c-5.49-1.99-10.85-5.75-12.73-11.53C287.05,160.42,287.8,151.8,292.75,145.83z"/>
	<path fill="#007ACC" d="M416.37,138.53c12.46-3.19,26.3-1.46,37.22,5.49c-0.02,3.66-0.02,7.33,0.01,10.99
		c-7.57-6.46-17.66-9.81-27.6-8.86c-7.58,0.37-15.14,4.06-19.29,10.56c-5.42,8.46-5.96,19.02-5.02,28.75
		c0.92,8.9,5.06,18.18,13.36,22.43c12.61,6.23,28.54,2.79,38.52-6.8c-0.21,3.64,0.47,7.46-0.28,11c-7.76,5.88-17.78,8.35-27.42,7.83
		c-8.59-0.34-17.32-3.19-23.64-9.19c-7.16-6.5-10.93-16.02-11.8-25.52c-0.96-10.13-0.08-20.85,4.84-29.94
		C399.59,147.09,407.41,140.85,416.37,138.53z"/>
	<path fill="#007ACC" d="M115.1,138.11c5.88,0.84,11,4.44,16.62,6.3c0.15,17.91,0.02,35.82,0.06,53.73
		c-5.57,2.09-10.84,4.94-16.52,6.74c-8.66-8.84-17.71-17.34-26.22-26.31c-0.49-0.09-1.47-0.25-1.96-0.33
		c-4.88,4.18-10.2,7.82-15.25,11.8c-2.24-0.5-4.44-1.11-6.62-1.8c0.1-0.32,0.29-0.97,0.39-1.29c5.3-4.95,10.39-10.13,15.61-15.18
		c-4.59-6.48-11.41-11.09-16.27-17.37c2.31-0.75,4.63-1.45,7-2.02c5.14,4.44,10.77,8.29,16.14,12.45
		C97.09,155.93,105.96,146.86,115.1,138.11 M96.83,171.06c2.63,2.8,5.98,4.75,8.96,7.13c3.22,2.31,6.13,5.07,9.65,6.94
		c0.1-9.36,0.15-18.73-0.02-28.08C109.22,161.71,103.08,166.45,96.83,171.06z"/>
	<path fill="#007ACC" d="M207.83,139c3.7,0,7.41,0,11.12-0.01c8.37,22.17,16.65,44.38,24.99,66.56
		c8.24-22.21,16.68-44.34,24.95-66.54c3.69-0.01,7.38-0.01,11.07-0.01c-9.92,26.35-20.03,52.64-29.94,79c-4.04,0-8.09,0-12.13-0.01
		C227.88,191.66,217.86,165.33,207.83,139z"/>
	<path fill="#007ACC" d="M486.37,157.48c7.64-1.22,16.15-0.2,22.32,4.8c6.28,4.92,9.45,12.85,10.16,20.62
		c0.84,8.88,0.05,18.48-4.96,26.12c-9.35,14.8-34.55,14.79-43.76-0.15c-5.73-9.09-6.07-20.61-4.05-30.88
		C467.96,167.93,475.97,158.89,486.37,157.48 M487.47,165.66c-7.26,2.1-11.06,9.79-11.87,16.81c-0.91,8.16-0.55,17.36,4.75,24.09
		c5.19,6.79,16.5,7.32,22.34,1.09c4.93-5.19,6.27-12.7,6.2-19.61c-0.07-6.61-1.48-13.72-6.18-18.66
		C498.9,165.31,492.72,164.07,487.47,165.66z"/>
	<path fill="#007ACC" d="M620.95,157.93c9.37-2.25,20.59-0.67,27.14,6.99c6.13,6.76,6.96,16.37,6.6,25.07
		c-14.89,0.04-29.78-0.03-44.67,0.03c0.41,8.01,3.72,16.98,11.7,20.19c10.02,3.84,21.28,1.04,30.74-3.16
		c-0.01,3-0.02,6.01-0.07,9.01c-10.48,3.58-22.11,5.55-32.93,2.34c-9-2.6-16.1-10.32-18.3-19.38c-1.81-7.5-1.62-15.55,0.67-22.93
		C604.55,167.32,611.85,159.88,620.95,157.93 M619.32,167.18c-5.58,2.76-8.41,8.92-8.98,14.88c11.58,0,23.17-0.04,34.76-0.11
		c-0.35-4.22-1.23-8.66-4.19-11.88C635.67,163.98,626.11,163.74,619.32,167.18z"/>
</g>
</svg>
